<?xml version="1.0" encoding="us-ascii" standalone="no"?><svg xmlns="http://www.w3.org/2000/svg" xmlns:xlink="http://www.w3.org/1999/xlink" contentStyleType="text/css" height="762px" preserveAspectRatio="none" style="width:598px;height:762px;background:#FFFFFF;" version="1.1" viewBox="0 0 598 762" width="598px" zoomAndPan="magnify"><defs/><g><ellipse cx="245.5" cy="15" fill="#FFFFFF" rx="10" ry="10" style="stroke:#000000;stroke-width:1.0;"/><rect fill="#FFFFFF" height="34.584" rx="12.5" ry="12.5" style="stroke:#000000;stroke-width:1.0;" width="134" x="178.5" y="45"/><text fill="#000000" font-family="Verdana" font-size="12" lengthAdjust="spacing" textLength="114" x="188.5" y="67.0645">Detecta obst&#225;culo</text><rect fill="#FFFFFF" height="34.584" rx="12.5" ry="12.5" style="stroke:#000000;stroke-width:1.0;" width="331" x="80" y="99.584"/><text fill="#000000" font-family="Verdana" font-size="12" lengthAdjust="spacing" textLength="311" x="90" y="121.6484">Volta para a &#250;ltima interse&#231;&#227;o andando para tr&#225;s</text><rect fill="#FFFFFF" height="34.584" rx="12.5" ry="12.5" style="stroke:#000000;stroke-width:1.0;" width="398" x="46.5" y="154.168"/><text fill="#000000" font-family="Verdana" font-size="12" lengthAdjust="spacing" textLength="378" x="56.5" y="176.2324">Reseta estado do sensor frontal para evitar falsos positivos</text><rect fill="#FFFFFF" height="34.584" rx="12.5" ry="12.5" style="stroke:#000000;stroke-width:1.0;" width="316" x="87.5" y="208.752"/><text fill="#000000" font-family="Verdana" font-size="12" lengthAdjust="spacing" textLength="296" x="97.5" y="230.8164">Tenta recalcular rota considerando o obst&#225;culo</text><polygon fill="#FFFFFF" points="132,263.3359,359,263.3359,371,275.3359,359,287.3359,132,287.3359,120,275.3359,132,263.3359" style="stroke:#000000;stroke-width:1.0;"/><text fill="#000000" font-family="Verdana" font-size="11" lengthAdjust="spacing" textLength="227" x="132" y="279.7107">Caminho &#233; muito curto para recalcular?</text><text fill="#000000" font-family="Verdana" font-size="11" lengthAdjust="spacing" textLength="20" x="100" y="273.0264">sim</text><text fill="#000000" font-family="Verdana" font-size="11" lengthAdjust="spacing" textLength="21" x="371" y="273.0264">n&#227;o</text><rect fill="#FFFFFF" height="34.584" rx="12.5" ry="12.5" style="stroke:#000000;stroke-width:1.0;" width="176" x="6" y="297.3359"/><text fill="#000000" font-family="Verdana" font-size="12" lengthAdjust="spacing" textLength="156" x="16" y="319.4004">N&#227;o &#233; poss&#237;vel recalcular</text><ellipse cx="94" cy="362.9199" fill="none" rx="11" ry="11" style="stroke:#000000;stroke-width:1.0;"/><ellipse cx="94" cy="362.9199" fill="#FFFFFF" rx="6" ry="6" style="stroke:#000000;stroke-width:1.0;"/><rect fill="#FFFFFF" height="34.584" rx="12.5" ry="12.5" style="stroke:#000000;stroke-width:1.0;" width="365" x="214.5" y="297.3359"/><text fill="#000000" font-family="Verdana" font-size="12" lengthAdjust="spacing" textLength="345" x="224.5" y="319.4004">Calcula posi&#231;&#227;o do obst&#225;culo entre os dois &#250;ltimos n&#243;s</text><rect fill="#FFFFFF" height="34.584" rx="12.5" ry="12.5" style="stroke:#000000;stroke-width:1.0;" width="211" x="291.5" y="351.9199"/><text fill="#000000" font-family="Verdana" font-size="12" lengthAdjust="spacing" textLength="191" x="301.5" y="373.9844">Marca posi&#231;&#227;o como obst&#225;culo</text><rect fill="#FFFFFF" height="34.584" rx="12.5" ry="12.5" style="stroke:#000000;stroke-width:1.0;" width="390" x="202" y="406.5039"/><text fill="#000000" font-family="Verdana" font-size="12" lengthAdjust="spacing" textLength="370" x="212" y="428.5684">Recalcula rota usando A* do &#250;ltimo n&#243; v&#225;lido at&#233; o destino</text><rect fill="#FFFFFF" height="34.584" rx="12.5" ry="12.5" style="stroke:#000000;stroke-width:1.0;" width="232" x="281" y="461.0879"/><text fill="#000000" font-family="Verdana" font-size="12" lengthAdjust="spacing" textLength="212" x="291" y="483.1523">Atualiza caminho com a nova rota</text><rect fill="#FFFFFF" height="34.584" rx="12.5" ry="12.5" style="stroke:#000000;stroke-width:1.0;" width="202" x="296" y="515.6719"/><text fill="#000000" font-family="Verdana" font-size="12" lengthAdjust="spacing" textLength="182" x="306" y="537.7363">Imprime caminho recalculado</text><rect fill="#FFFFFF" height="34.584" rx="12.5" ry="12.5" style="stroke:#000000;stroke-width:1.0;" width="359" x="217.5" y="570.2559"/><text fill="#000000" font-family="Verdana" font-size="12" lengthAdjust="spacing" textLength="339" x="227.5" y="592.3203">Determina pr&#243;xima dire&#231;&#227;o baseada no novo caminho</text><rect fill="#FFFFFF" height="34.584" rx="12.5" ry="12.5" style="stroke:#000000;stroke-width:1.0;" width="230" x="282" y="624.8398"/><text fill="#000000" font-family="Verdana" font-size="12" lengthAdjust="spacing" textLength="210" x="292" y="646.9043">Imprime dire&#231;&#245;es atual e pr&#243;xima</text><rect fill="#FFFFFF" height="34.584" rx="12.5" ry="12.5" style="stroke:#000000;stroke-width:1.0;" width="245" x="123" y="679.4238"/><text fill="#000000" font-family="Verdana" font-size="12" lengthAdjust="spacing" textLength="225" x="133" y="701.4883">Atualiza estado para mudar dire&#231;&#227;o</text><ellipse cx="245.5" cy="745.0078" fill="none" rx="11" ry="11" style="stroke:#000000;stroke-width:1.0;"/><ellipse cx="245.5" cy="745.0078" fill="#FFFFFF" rx="6" ry="6" style="stroke:#000000;stroke-width:1.0;"/><line style="stroke:#000000;stroke-width:1.0;" x1="245.5" x2="245.5" y1="25" y2="45"/><polygon fill="#000000" points="241.5,35,245.5,45,249.5,35,245.5,39" style="stroke:#000000;stroke-width:1.0;"/><line style="stroke:#000000;stroke-width:1.0;" x1="245.5" x2="245.5" y1="79.584" y2="99.584"/><polygon fill="#000000" points="241.5,89.584,245.5,99.584,249.5,89.584,245.5,93.584" style="stroke:#000000;stroke-width:1.0;"/><line style="stroke:#000000;stroke-width:1.0;" x1="245.5" x2="245.5" y1="134.168" y2="154.168"/><polygon fill="#000000" points="241.5,144.168,245.5,154.168,249.5,144.168,245.5,148.168" style="stroke:#000000;stroke-width:1.0;"/><line style="stroke:#000000;stroke-width:1.0;" x1="245.5" x2="245.5" y1="188.752" y2="208.752"/><polygon fill="#000000" points="241.5,198.752,245.5,208.752,249.5,198.752,245.5,202.752" style="stroke:#000000;stroke-width:1.0;"/><line style="stroke:#000000;stroke-width:1.0;" x1="94" x2="94" y1="331.9199" y2="351.9199"/><polygon fill="#000000" points="90,341.9199,94,351.9199,98,341.9199,94,345.9199" style="stroke:#000000;stroke-width:1.0;"/><line style="stroke:#000000;stroke-width:1.0;" x1="397" x2="397" y1="331.9199" y2="351.9199"/><polygon fill="#000000" points="393,341.9199,397,351.9199,401,341.9199,397,345.9199" style="stroke:#000000;stroke-width:1.0;"/><line style="stroke:#000000;stroke-width:1.0;" x1="397" x2="397" y1="386.5039" y2="406.5039"/><polygon fill="#000000" points="393,396.5039,397,406.5039,401,396.5039,397,400.5039" style="stroke:#000000;stroke-width:1.0;"/><line style="stroke:#000000;stroke-width:1.0;" x1="397" x2="397" y1="441.0879" y2="461.0879"/><polygon fill="#000000" points="393,451.0879,397,461.0879,401,451.0879,397,455.0879" style="stroke:#000000;stroke-width:1.0;"/><line style="stroke:#000000;stroke-width:1.0;" x1="397" x2="397" y1="495.6719" y2="515.6719"/><polygon fill="#000000" points="393,505.6719,397,515.6719,401,505.6719,397,509.6719" style="stroke:#000000;stroke-width:1.0;"/><line style="stroke:#000000;stroke-width:1.0;" x1="397" x2="397" y1="550.2559" y2="570.2559"/><polygon fill="#000000" points="393,560.2559,397,570.2559,401,560.2559,397,564.2559" style="stroke:#000000;stroke-width:1.0;"/><line style="stroke:#000000;stroke-width:1.0;" x1="397" x2="397" y1="604.8398" y2="624.8398"/><polygon fill="#000000" points="393,614.8398,397,624.8398,401,614.8398,397,618.8398" style="stroke:#000000;stroke-width:1.0;"/><line style="stroke:#000000;stroke-width:1.0;" x1="120" x2="94" y1="275.3359" y2="275.3359"/><line style="stroke:#000000;stroke-width:1.0;" x1="94" x2="94" y1="275.3359" y2="297.3359"/><polygon fill="#000000" points="90,287.3359,94,297.3359,98,287.3359,94,291.3359" style="stroke:#000000;stroke-width:1.0;"/><line style="stroke:#000000;stroke-width:1.0;" x1="371" x2="397" y1="275.3359" y2="275.3359"/><line style="stroke:#000000;stroke-width:1.0;" x1="397" x2="397" y1="275.3359" y2="297.3359"/><polygon fill="#000000" points="393,287.3359,397,297.3359,401,287.3359,397,291.3359" style="stroke:#000000;stroke-width:1.0;"/><line style="stroke:#000000;stroke-width:1.0;" x1="397" x2="397" y1="659.4238" y2="664.4238"/><line style="stroke:#000000;stroke-width:1.0;" x1="397" x2="245.5" y1="664.4238" y2="664.4238"/><line style="stroke:#000000;stroke-width:1.0;" x1="245.5" x2="245.5" y1="664.4238" y2="679.4238"/><polygon fill="#000000" points="241.5,669.4238,245.5,679.4238,249.5,669.4238,245.5,673.4238" style="stroke:#000000;stroke-width:1.0;"/><line style="stroke:#000000;stroke-width:1.0;" x1="245.5" x2="245.5" y1="243.3359" y2="263.3359"/><polygon fill="#000000" points="241.5,253.3359,245.5,263.3359,249.5,253.3359,245.5,257.3359" style="stroke:#000000;stroke-width:1.0;"/><line style="stroke:#000000;stroke-width:1.0;" x1="245.5" x2="245.5" y1="714.0078" y2="734.0078"/><polygon fill="#000000" points="241.5,724.0078,245.5,734.0078,249.5,724.0078,245.5,728.0078" style="stroke:#000000;stroke-width:1.0;"/><!--SRC=[LL8nRYCn3Epr2bxdt1Fi8WYI9iLT4GJfbHMD4D2A2r6x2F8R8qMGughWcclriHljhXqRK2DfPZX3yaTvuPvfY5wISrPyBcvxnuMxuacVhTH3DqRTkUsJHZmDFdloLF_58hqdIOMpSVsexqe-1HnTC2NNWu7smCRWCQJnXMESJ3FjiwRYumBcIL2PzZwQ6WrgKcJIHdzae2XpvoDy09CLzqwJIU0ybzCBdqxsjBdrlQGNfVf9_IX5gHjpMOrzQrrV4T8dsfZqLuve-xkb00S6hFwPE9w1Tm1OqS5nDAPD0dJct2x_i-cb3U7S4C5_PaAge69htt1BzSkQvFQNpzqvkzF-CX0m3qSNI_hHvjmtFrkfLR49qbGFKV3c2qB029ekQP6uAQEFyeRMhQr17SmnwRI8pg3xViY2RJXYJkd38jBs8kCBVdFzUcqB42Ilqt_snZuqoQQgHv4BuHNzbmqUOOZufBHpd8BidVkskkxCFBL-31Z-gThEjLdy1m00]--></g></svg>