<?xml version="1.0" encoding="us-ascii" standalone="no"?><svg xmlns="http://www.w3.org/2000/svg" xmlns:xlink="http://www.w3.org/1999/xlink" contentStyleType="text/css" height="1152px" preserveAspectRatio="none" style="width:1512px;height:1152px;background:#FFFFFF;" version="1.1" viewBox="0 0 1512 1152" width="1512px" zoomAndPan="magnify"><defs/><g><ellipse cx="737.5" cy="15" fill="#FFFFFF" rx="10" ry="10" style="stroke:#000000;stroke-width:1.0;"/><rect fill="#FFFFFF" height="34.584" rx="12.5" ry="12.5" style="stroke:#000000;stroke-width:1.0;" width="196" x="639.5" y="45"/><text fill="#000000" font-family="Verdana" font-size="12" lengthAdjust="spacing" textLength="176" x="649.5" y="67.0645">Inicializa comunica&#231;&#227;o serial</text><rect fill="#FFFFFF" height="34.584" rx="12.5" ry="12.5" style="stroke:#000000;stroke-width:1.0;" width="293" x="591" y="99.584"/><text fill="#000000" font-family="Verdana" font-size="12" lengthAdjust="spacing" textLength="273" x="601" y="121.6484">Configura pinos dos motores e sensores IR</text><rect fill="#FFFFFF" height="34.584" rx="12.5" ry="12.5" style="stroke:#000000;stroke-width:1.0;" width="252" x="611.5" y="154.168"/><text fill="#000000" font-family="Verdana" font-size="12" lengthAdjust="spacing" textLength="232" x="621.5" y="176.2324">Ajusta estado inicial dos sensores IR</text><rect fill="#FFFFFF" height="34.584" rx="12.5" ry="12.5" style="stroke:#000000;stroke-width:1.0;" width="237" x="619" y="208.752"/><text fill="#000000" font-family="Verdana" font-size="12" lengthAdjust="spacing" textLength="217" x="629" y="230.8164">Obt&#233;m coordenadas de in&#237;cio e fim</text><rect fill="#FFFFFF" height="34.584" rx="12.5" ry="12.5" style="stroke:#000000;stroke-width:1.0;" width="230" x="622.5" y="263.3359"/><text fill="#000000" font-family="Verdana" font-size="12" lengthAdjust="spacing" textLength="210" x="632.5" y="285.4004">Calcula caminho inicial usando A*</text><rect fill="#FFFFFF" height="34.584" rx="12.5" ry="12.5" style="stroke:#000000;stroke-width:1.0;" width="264" x="605.5" y="317.9199"/><text fill="#000000" font-family="Verdana" font-size="12" lengthAdjust="spacing" textLength="244" x="615.5" y="339.9844">Define dire&#231;&#227;o inicial e pr&#243;xima dire&#231;&#227;o</text><rect fill="#FFFFFF" height="34.584" rx="12.5" ry="12.5" style="stroke:#000000;stroke-width:1.0;" width="227" x="624" y="372.5039"/><text fill="#000000" font-family="Verdana" font-size="12" lengthAdjust="spacing" textLength="207" x="634" y="394.5684">Imprime caminho e dire&#231;&#227;o inicial</text><rect fill="#FFFFFF" height="34.584" rx="12.5" ry="12.5" style="stroke:#000000;stroke-width:1.0;" width="278" x="598.5" y="427.0879"/><text fill="#000000" font-family="Verdana" font-size="12" lengthAdjust="spacing" textLength="258" x="608.5" y="449.1523">Inicia com estado DIRIGIR_PARA_FRENTE</text><polygon fill="#FFFFFF" points="163.5,525.6719,385.5,525.6719,397.5,537.6719,385.5,549.6719,163.5,549.6719,151.5,537.6719,163.5,525.6719" style="stroke:#000000;stroke-width:1.0;"/><text fill="#000000" font-family="Verdana" font-size="11" lengthAdjust="spacing" textLength="20" x="278.5" y="560.731">sim</text><text fill="#000000" font-family="Verdana" font-size="11" lengthAdjust="spacing" textLength="222" x="163.5" y="542.0466">Estado atual &#233; DIRIGIR_PARA_FRENTE</text><rect fill="#FFFFFF" height="34.584" rx="12.5" ry="12.5" style="stroke:#000000;stroke-width:1.0;" width="131" x="209" y="582.231"/><text fill="#000000" font-family="Verdana" font-size="12" lengthAdjust="spacing" textLength="111" x="219" y="604.2954">Dirige para frente</text><polygon fill="#FFFFFF" points="48.5,661.8149,150.5,661.8149,162.5,673.8149,150.5,685.8149,48.5,685.8149,36.5,673.8149,48.5,661.8149" style="stroke:#000000;stroke-width:1.0;"/><text fill="#000000" font-family="Verdana" font-size="11" lengthAdjust="spacing" textLength="20" x="103.5" y="696.874">sim</text><text fill="#000000" font-family="Verdana" font-size="11" lengthAdjust="spacing" textLength="102" x="48.5" y="678.1897">Detecta obst&#225;culo</text><rect fill="#FFFFFF" height="34.584" rx="12.5" ry="12.5" style="stroke:#000000;stroke-width:1.0;" width="187" x="6" y="719.1836"/><text fill="#000000" font-family="Verdana" font-size="12" lengthAdjust="spacing" textLength="167" x="16" y="741.248">Muda estado para VOLTAR</text><polygon fill="#FFFFFF" points="293.5,661.8149,400.5,661.8149,412.5,673.8149,400.5,685.8149,293.5,685.8149,281.5,673.8149,293.5,661.8149" style="stroke:#000000;stroke-width:1.0;"/><text fill="#000000" font-family="Verdana" font-size="11" lengthAdjust="spacing" textLength="20" x="351" y="696.874">sim</text><text fill="#000000" font-family="Verdana" font-size="11" lengthAdjust="spacing" textLength="107" x="293.5" y="678.1897">Detecta interse&#231;&#227;o</text><rect fill="#FFFFFF" height="34.584" rx="12.5" ry="12.5" style="stroke:#000000;stroke-width:1.0;" width="158" x="268" y="719.1836"/><text fill="#000000" font-family="Verdana" font-size="12" lengthAdjust="spacing" textLength="138" x="278" y="741.248">Atualiza posi&#231;&#227;o atual</text><rect fill="#FFFFFF" height="34.584" rx="12.5" ry="12.5" style="stroke:#000000;stroke-width:1.0;" width="248" x="223" y="835.2366"/><text fill="#000000" font-family="Verdana" font-size="12" lengthAdjust="spacing" textLength="228" x="233" y="857.301">Muda estado para MUDAR_DIRE&#199;&#195;O</text><polygon fill="#FFFFFF" points="252,786.5522,442,786.5522,454,798.5522,442,810.5522,252,810.5522,240,798.5522,252,786.5522" style="stroke:#000000;stroke-width:1.0;"/><text fill="#000000" font-family="Verdana" font-size="11" lengthAdjust="spacing" textLength="20" x="351" y="821.6113">sim</text><text fill="#000000" font-family="Verdana" font-size="11" lengthAdjust="spacing" textLength="190" x="252" y="802.927">Dire&#231;&#227;o atual != Pr&#243;xima dire&#231;&#227;o</text><polygon fill="#FFFFFF" points="347,889.8206,359,901.8206,347,913.8206,335,901.8206,347,889.8206" style="stroke:#000000;stroke-width:1.0;"/><rect fill="#FFFFFF" height="34.584" rx="12.5" ry="12.5" style="stroke:#000000;stroke-width:1.0;" width="179" x="257.5" y="982.5049"/><text fill="#000000" font-family="Verdana" font-size="12" lengthAdjust="spacing" textLength="159" x="267.5" y="1004.5693">Muda estado para PARAR</text><polygon fill="#FFFFFF" points="302,933.8206,392,933.8206,404,945.8206,392,957.8206,302,957.8206,290,945.8206,302,933.8206" style="stroke:#000000;stroke-width:1.0;"/><text fill="#000000" font-family="Verdana" font-size="11" lengthAdjust="spacing" textLength="20" x="351" y="968.8796">sim</text><text fill="#000000" font-family="Verdana" font-size="11" lengthAdjust="spacing" textLength="90" x="302" y="950.1953">Fim do caminho</text><polygon fill="#FFFFFF" points="347,1037.0889,359,1049.0889,347,1061.0889,335,1049.0889,347,1037.0889" style="stroke:#000000;stroke-width:1.0;"/><polygon fill="#FFFFFF" points="560,525.6719,749,525.6719,761,537.6719,749,549.6719,560,549.6719,548,537.6719,560,525.6719" style="stroke:#000000;stroke-width:1.0;"/><text fill="#000000" font-family="Verdana" font-size="11" lengthAdjust="spacing" textLength="20" x="658.5" y="560.731">sim</text><text fill="#000000" font-family="Verdana" font-size="11" lengthAdjust="spacing" textLength="189" x="560" y="542.0466">Estado atual &#233; MUDAR_DIRE&#199;&#195;O</text><rect fill="#FFFFFF" height="34.584" rx="12.5" ry="12.5" style="stroke:#000000;stroke-width:1.0;" width="163" x="573" y="582.231"/><text fill="#000000" font-family="Verdana" font-size="12" lengthAdjust="spacing" textLength="143" x="583" y="604.2954">Gira para nova dire&#231;&#227;o</text><rect fill="#FFFFFF" height="34.584" rx="12.5" ry="12.5" style="stroke:#000000;stroke-width:1.0;" width="283" x="513" y="636.8149"/><text fill="#000000" font-family="Verdana" font-size="12" lengthAdjust="spacing" textLength="263" x="523" y="658.8794">Muda estado para DIRIGIR_PARA_FRENTE</text><polygon fill="#FFFFFF" points="874.5,525.6719,1005.5,525.6719,1017.5,537.6719,1005.5,549.6719,874.5,549.6719,862.5,537.6719,874.5,525.6719" style="stroke:#000000;stroke-width:1.0;"/><text fill="#000000" font-family="Verdana" font-size="11" lengthAdjust="spacing" textLength="20" x="944" y="560.731">sim</text><text fill="#000000" font-family="Verdana" font-size="11" lengthAdjust="spacing" textLength="131" x="874.5" y="542.0466">Estado atual &#233; VOLTAR</text><rect fill="#FFFFFF" height="34.584" rx="12.5" ry="12.5" style="stroke:#000000;stroke-width:1.0;" width="209" x="835.5" y="582.231"/><text fill="#000000" font-family="Verdana" font-size="12" lengthAdjust="spacing" textLength="189" x="845.5" y="604.2954">Volta para interse&#231;&#227;o anterior</text><rect fill="#FFFFFF" height="34.584" rx="12.5" ry="12.5" style="stroke:#000000;stroke-width:1.0;" width="224" x="828" y="636.8149"/><text fill="#000000" font-family="Verdana" font-size="12" lengthAdjust="spacing" textLength="204" x="838" y="658.8794">Reseta estado do sensor frontal</text><rect fill="#FFFFFF" height="34.584" rx="12.5" ry="12.5" style="stroke:#000000;stroke-width:1.0;" width="108" x="886" y="706.3989"/><text fill="#000000" font-family="Verdana" font-size="12" lengthAdjust="spacing" textLength="88" x="896" y="728.4634">Recalcula rota</text><rect fill="#FFFFFF" height="34.584" rx="12.5" ry="12.5" style="stroke:#000000;stroke-width:1.0;" width="248" x="816" y="773.7676"/><text fill="#000000" font-family="Verdana" font-size="12" lengthAdjust="spacing" textLength="228" x="826" y="795.832">Muda estado para MUDAR_DIRE&#199;&#195;O</text><polygon fill="#FFFFFF" points="1204.5,525.6719,1328.5,525.6719,1340.5,537.6719,1328.5,549.6719,1204.5,549.6719,1192.5,537.6719,1204.5,525.6719" style="stroke:#000000;stroke-width:1.0;"/><text fill="#000000" font-family="Verdana" font-size="11" lengthAdjust="spacing" textLength="20" x="1270.5" y="560.731">sim</text><text fill="#000000" font-family="Verdana" font-size="11" lengthAdjust="spacing" textLength="124" x="1204.5" y="542.0466">Estado atual &#233; PARAR</text><rect fill="#FFFFFF" height="34.584" rx="12.5" ry="12.5" style="stroke:#000000;stroke-width:1.0;" width="124" x="1204.5" y="582.231"/><text fill="#000000" font-family="Verdana" font-size="12" lengthAdjust="spacing" textLength="104" x="1214.5" y="604.2954">Para os motores</text><rect fill="#FFFFFF" height="34.584" rx="12.5" ry="12.5" style="stroke:#000000;stroke-width:1.0;" width="385" x="1074" y="636.8149"/><text fill="#000000" font-family="Verdana" font-size="12" lengthAdjust="spacing" textLength="365" x="1084" y="658.8794">Espera at&#233; que sensores laterais parem de detectar linha</text><ellipse cx="1266.5" cy="717.3989" fill="none" rx="11" ry="11" style="stroke:#000000;stroke-width:1.0;"/><ellipse cx="1266.5" cy="717.3989" fill="#FFFFFF" rx="6" ry="6" style="stroke:#000000;stroke-width:1.0;"/><polygon fill="#FFFFFF" points="737.5,481.6719,749.5,493.6719,737.5,505.6719,725.5,493.6719,737.5,481.6719" style="stroke:#000000;stroke-width:1.0;"/><polygon fill="#FFFFFF" points="672.5,1121.0889,802.5,1121.0889,814.5,1133.0889,802.5,1145.0889,672.5,1145.0889,660.5,1133.0889,672.5,1121.0889" style="stroke:#000000;stroke-width:1.0;"/><text fill="#000000" font-family="Verdana" font-size="11" lengthAdjust="spacing" textLength="130" x="672.5" y="1137.4636">Estado atual != PARAR</text><line style="stroke:#000000;stroke-width:1.0;" x1="737.5" x2="737.5" y1="25" y2="45"/><polygon fill="#000000" points="733.5,35,737.5,45,741.5,35,737.5,39" style="stroke:#000000;stroke-width:1.0;"/><line style="stroke:#000000;stroke-width:1.0;" x1="737.5" x2="737.5" y1="79.584" y2="99.584"/><polygon fill="#000000" points="733.5,89.584,737.5,99.584,741.5,89.584,737.5,93.584" style="stroke:#000000;stroke-width:1.0;"/><line style="stroke:#000000;stroke-width:1.0;" x1="737.5" x2="737.5" y1="134.168" y2="154.168"/><polygon fill="#000000" points="733.5,144.168,737.5,154.168,741.5,144.168,737.5,148.168" style="stroke:#000000;stroke-width:1.0;"/><line style="stroke:#000000;stroke-width:1.0;" x1="737.5" x2="737.5" y1="188.752" y2="208.752"/><polygon fill="#000000" points="733.5,198.752,737.5,208.752,741.5,198.752,737.5,202.752" style="stroke:#000000;stroke-width:1.0;"/><line style="stroke:#000000;stroke-width:1.0;" x1="737.5" x2="737.5" y1="243.3359" y2="263.3359"/><polygon fill="#000000" points="733.5,253.3359,737.5,263.3359,741.5,253.3359,737.5,257.3359" style="stroke:#000000;stroke-width:1.0;"/><line style="stroke:#000000;stroke-width:1.0;" x1="737.5" x2="737.5" y1="297.9199" y2="317.9199"/><polygon fill="#000000" points="733.5,307.9199,737.5,317.9199,741.5,307.9199,737.5,311.9199" style="stroke:#000000;stroke-width:1.0;"/><line style="stroke:#000000;stroke-width:1.0;" x1="737.5" x2="737.5" y1="352.5039" y2="372.5039"/><polygon fill="#000000" points="733.5,362.5039,737.5,372.5039,741.5,362.5039,737.5,366.5039" style="stroke:#000000;stroke-width:1.0;"/><line style="stroke:#000000;stroke-width:1.0;" x1="737.5" x2="737.5" y1="407.0879" y2="427.0879"/><polygon fill="#000000" points="733.5,417.0879,737.5,427.0879,741.5,417.0879,737.5,421.0879" style="stroke:#000000;stroke-width:1.0;"/><line style="stroke:#000000;stroke-width:1.0;" x1="347" x2="347" y1="810.5522" y2="835.2366"/><polygon fill="#000000" points="343,825.2366,347,835.2366,351,825.2366,347,829.2366" style="stroke:#000000;stroke-width:1.0;"/><line style="stroke:#000000;stroke-width:1.0;" x1="454" x2="481" y1="798.5522" y2="798.5522"/><polygon fill="#000000" points="477,842.5286,481,852.5286,485,842.5286,481,846.5286" style="stroke:#000000;stroke-width:1.0;"/><line style="stroke:#000000;stroke-width:1.0;" x1="481" x2="481" y1="798.5522" y2="901.8206"/><line style="stroke:#000000;stroke-width:1.0;" x1="481" x2="359" y1="901.8206" y2="901.8206"/><polygon fill="#000000" points="369,897.8206,359,901.8206,369,905.8206,365,901.8206" style="stroke:#000000;stroke-width:1.0;"/><line style="stroke:#000000;stroke-width:1.0;" x1="347" x2="347" y1="869.8206" y2="889.8206"/><polygon fill="#000000" points="343,879.8206,347,889.8206,351,879.8206,347,883.8206" style="stroke:#000000;stroke-width:1.0;"/><line style="stroke:#000000;stroke-width:1.0;" x1="347" x2="347" y1="753.7676" y2="786.5522"/><polygon fill="#000000" points="343,776.5522,347,786.5522,351,776.5522,347,780.5522" style="stroke:#000000;stroke-width:1.0;"/><line style="stroke:#000000;stroke-width:1.0;" x1="347" x2="347" y1="957.8206" y2="982.5049"/><polygon fill="#000000" points="343,972.5049,347,982.5049,351,972.5049,347,976.5049" style="stroke:#000000;stroke-width:1.0;"/><line style="stroke:#000000;stroke-width:1.0;" x1="404" x2="446.5" y1="945.8206" y2="945.8206"/><polygon fill="#000000" points="442.5,989.7969,446.5,999.7969,450.5,989.7969,446.5,993.7969" style="stroke:#000000;stroke-width:1.0;"/><line style="stroke:#000000;stroke-width:1.0;" x1="446.5" x2="446.5" y1="945.8206" y2="1049.0889"/><line style="stroke:#000000;stroke-width:1.0;" x1="446.5" x2="359" y1="1049.0889" y2="1049.0889"/><polygon fill="#000000" points="369,1045.0889,359,1049.0889,369,1053.0889,365,1049.0889" style="stroke:#000000;stroke-width:1.0;"/><line style="stroke:#000000;stroke-width:1.0;" x1="347" x2="347" y1="1017.0889" y2="1037.0889"/><polygon fill="#000000" points="343,1027.0889,347,1037.0889,351,1027.0889,347,1031.0889" style="stroke:#000000;stroke-width:1.0;"/><line style="stroke:#000000;stroke-width:1.0;" x1="347" x2="347" y1="913.8206" y2="933.8206"/><polygon fill="#000000" points="343,923.8206,347,933.8206,351,923.8206,347,927.8206" style="stroke:#000000;stroke-width:1.0;"/><line style="stroke:#000000;stroke-width:1.0;" x1="99.5" x2="99.5" y1="685.8149" y2="719.1836"/><polygon fill="#000000" points="95.5,709.1836,99.5,719.1836,103.5,709.1836,99.5,713.1836" style="stroke:#000000;stroke-width:1.0;"/><line style="stroke:#000000;stroke-width:1.0;" x1="99.5" x2="99.5" y1="753.7676" y2="1081.0889"/><polygon fill="#000000" points="95.5,1071.0889,99.5,1081.0889,103.5,1071.0889,99.5,1075.0889" style="stroke:#000000;stroke-width:1.0;"/><line style="stroke:#000000;stroke-width:1.0;" x1="347" x2="347" y1="685.8149" y2="719.1836"/><polygon fill="#000000" points="343,709.1836,347,719.1836,351,709.1836,347,713.1836" style="stroke:#000000;stroke-width:1.0;"/><line style="stroke:#000000;stroke-width:1.0;" x1="347" x2="347" y1="1061.0889" y2="1081.0889"/><polygon fill="#000000" points="343,1071.0889,347,1081.0889,351,1071.0889,347,1075.0889" style="stroke:#000000;stroke-width:1.0;"/><line style="stroke:#000000;stroke-width:1.0;" x1="162.5" x2="281.5" y1="673.8149" y2="673.8149"/><polygon fill="#000000" points="271.5,669.8149,281.5,673.8149,271.5,677.8149,275.5,673.8149" style="stroke:#000000;stroke-width:1.0;"/><line style="stroke:#000000;stroke-width:1.0;" x1="274.5" x2="274.5" y1="616.8149" y2="636.8149"/><line style="stroke:#000000;stroke-width:1.0;" x1="274.5" x2="99.5" y1="636.8149" y2="636.8149"/><line style="stroke:#000000;stroke-width:1.0;" x1="99.5" x2="99.5" y1="636.8149" y2="661.8149"/><polygon fill="#000000" points="95.5,651.8149,99.5,661.8149,103.5,651.8149,99.5,655.8149" style="stroke:#000000;stroke-width:1.0;"/><line style="stroke:#000000;stroke-width:1.0;" x1="412.5" x2="499" y1="673.8149" y2="673.8149"/><line style="stroke:#000000;stroke-width:1.0;" x1="499" x2="499" y1="673.8149" y2="1081.0889"/><polygon fill="#000000" points="495,1071.0889,499,1081.0889,503,1071.0889,499,1075.0889" style="stroke:#000000;stroke-width:1.0;"/><line style="stroke:#000000;stroke-width:1.0;" x1="99.5" x2="499" y1="1081.0889" y2="1081.0889"/><line style="stroke:#000000;stroke-width:1.0;" x1="654.5" x2="654.5" y1="616.8149" y2="636.8149"/><polygon fill="#000000" points="650.5,626.8149,654.5,636.8149,658.5,626.8149,654.5,630.8149" style="stroke:#000000;stroke-width:1.0;"/><line style="stroke:#000000;stroke-width:1.0;" x1="940" x2="940" y1="616.8149" y2="636.8149"/><polygon fill="#000000" points="936,626.8149,940,636.8149,944,626.8149,940,630.8149" style="stroke:#000000;stroke-width:1.0;"/><line style="stroke:#000000;stroke-width:1.0;" x1="940" x2="940" y1="671.3989" y2="706.3989"/><polygon fill="#000000" points="936,696.3989,940,706.3989,944,696.3989,940,700.3989" style="stroke:#000000;stroke-width:1.0;"/><line style="stroke:#000000;stroke-width:1.0;" x1="940" x2="940" y1="740.9829" y2="773.7676"/><polygon fill="#000000" points="936,763.7676,940,773.7676,944,763.7676,940,767.7676" style="stroke:#000000;stroke-width:1.0;"/><line style="stroke:#000000;stroke-width:1.0;" x1="1266.5" x2="1266.5" y1="616.8149" y2="636.8149"/><polygon fill="#000000" points="1262.5,626.8149,1266.5,636.8149,1270.5,626.8149,1266.5,630.8149" style="stroke:#000000;stroke-width:1.0;"/><line style="stroke:#000000;stroke-width:1.0;" x1="1266.5" x2="1266.5" y1="671.3989" y2="706.3989"/><polygon fill="#000000" points="1262.5,696.3989,1266.5,706.3989,1270.5,696.3989,1266.5,700.3989" style="stroke:#000000;stroke-width:1.0;"/><line style="stroke:#000000;stroke-width:1.0;" x1="274.5" x2="274.5" y1="549.6719" y2="582.231"/><polygon fill="#000000" points="270.5,572.231,274.5,582.231,278.5,572.231,274.5,576.231" style="stroke:#000000;stroke-width:1.0;"/><line style="stroke:#000000;stroke-width:1.0;" x1="274.5" x2="274.5" y1="1081.0889" y2="1101.0889"/><polygon fill="#000000" points="270.5,1091.0889,274.5,1101.0889,278.5,1091.0889,274.5,1095.0889" style="stroke:#000000;stroke-width:1.0;"/><line style="stroke:#000000;stroke-width:1.0;" x1="654.5" x2="654.5" y1="549.6719" y2="582.231"/><polygon fill="#000000" points="650.5,572.231,654.5,582.231,658.5,572.231,654.5,576.231" style="stroke:#000000;stroke-width:1.0;"/><line style="stroke:#000000;stroke-width:1.0;" x1="654.5" x2="654.5" y1="671.3989" y2="1101.0889"/><polygon fill="#000000" points="650.5,1091.0889,654.5,1101.0889,658.5,1091.0889,654.5,1095.0889" style="stroke:#000000;stroke-width:1.0;"/><line style="stroke:#000000;stroke-width:1.0;" x1="940" x2="940" y1="549.6719" y2="582.231"/><polygon fill="#000000" points="936,572.231,940,582.231,944,572.231,940,576.231" style="stroke:#000000;stroke-width:1.0;"/><line style="stroke:#000000;stroke-width:1.0;" x1="940" x2="940" y1="808.3516" y2="1101.0889"/><polygon fill="#000000" points="936,1091.0889,940,1101.0889,944,1091.0889,940,1095.0889" style="stroke:#000000;stroke-width:1.0;"/><line style="stroke:#000000;stroke-width:1.0;" x1="1266.5" x2="1266.5" y1="549.6719" y2="582.231"/><polygon fill="#000000" points="1262.5,572.231,1266.5,582.231,1270.5,572.231,1266.5,576.231" style="stroke:#000000;stroke-width:1.0;"/><line style="stroke:#000000;stroke-width:1.0;" x1="397.5" x2="548" y1="537.6719" y2="537.6719"/><polygon fill="#000000" points="538,533.6719,548,537.6719,538,541.6719,542,537.6719" style="stroke:#000000;stroke-width:1.0;"/><line style="stroke:#000000;stroke-width:1.0;" x1="761" x2="862.5" y1="537.6719" y2="537.6719"/><polygon fill="#000000" points="852.5,533.6719,862.5,537.6719,852.5,541.6719,856.5,537.6719" style="stroke:#000000;stroke-width:1.0;"/><line style="stroke:#000000;stroke-width:1.0;" x1="1017.5" x2="1192.5" y1="537.6719" y2="537.6719"/><polygon fill="#000000" points="1182.5,533.6719,1192.5,537.6719,1182.5,541.6719,1186.5,537.6719" style="stroke:#000000;stroke-width:1.0;"/><line style="stroke:#000000;stroke-width:1.0;" x1="737.5" x2="737.5" y1="505.6719" y2="510.6719"/><line style="stroke:#000000;stroke-width:1.0;" x1="737.5" x2="274.5" y1="510.6719" y2="510.6719"/><line style="stroke:#000000;stroke-width:1.0;" x1="274.5" x2="274.5" y1="510.6719" y2="525.6719"/><polygon fill="#000000" points="270.5,515.6719,274.5,525.6719,278.5,515.6719,274.5,519.6719" style="stroke:#000000;stroke-width:1.0;"/><line style="stroke:#000000;stroke-width:1.0;" x1="1340.5" x2="1473" y1="537.6719" y2="537.6719"/><line style="stroke:#000000;stroke-width:1.0;" x1="1473" x2="1473" y1="537.6719" y2="1101.0889"/><polygon fill="#000000" points="1469,1091.0889,1473,1101.0889,1477,1091.0889,1473,1095.0889" style="stroke:#000000;stroke-width:1.0;"/><line style="stroke:#000000;stroke-width:1.0;" x1="274.5" x2="1473" y1="1101.0889" y2="1101.0889"/><line style="stroke:#000000;stroke-width:1.0;" x1="814.5" x2="1491" y1="1133.0889" y2="1133.0889"/><polygon fill="#000000" points="1487,869.0522,1491,859.0522,1495,869.0522,1491,865.0522" style="stroke:#000000;stroke-width:1.0;"/><line style="stroke:#000000;stroke-width:1.0;" x1="1491" x2="1491" y1="493.6719" y2="1133.0889"/><line style="stroke:#000000;stroke-width:1.0;" x1="1491" x2="749.5" y1="493.6719" y2="493.6719"/><polygon fill="#000000" points="759.5,489.6719,749.5,493.6719,759.5,497.6719,755.5,493.6719" style="stroke:#000000;stroke-width:1.0;"/><line style="stroke:#000000;stroke-width:1.0;" x1="737.5" x2="737.5" y1="1101.0889" y2="1121.0889"/><polygon fill="#000000" points="733.5,1111.0889,737.5,1121.0889,741.5,1111.0889,737.5,1115.0889" style="stroke:#000000;stroke-width:1.0;"/><line style="stroke:#000000;stroke-width:1.0;" x1="737.5" x2="737.5" y1="461.6719" y2="481.6719"/><polygon fill="#000000" points="733.5,471.6719,737.5,481.6719,741.5,471.6719,737.5,475.6719" style="stroke:#000000;stroke-width:1.0;"/><!--SRC=[bLJ1Rfj04Btp5PjRqaymoW4L4Y4biONINAq93F54x2xTNTggrnxo7L4FLGuzzHFuiSw2CTZ1be9av6NVlddpPcRFt0ObYhe2Ka5W7HWNB595EK55Fq7aMZQyWlPF-riBYuQ_Xy7YirObFJK6H4rAMr7mJsgd3Lg135Es-vjcZ8sU6-OLoAz22-gvknFxkEMZQzyaHzIcG0K5C2qollsRasRMagIF35NUL2mC9AdDoDTOK4mVVM9CZ2Kf50KPx7KF84xKjFz-a8Hna_6fh0sn2mFdpD5mSCKxCkGIfrbwdMRhLPH5wwiikRjFmY0mM2EuGF13fJXFUYouXWMqRtE7BWHNGObpI_AYE-UVHKo6dbWniCkbGUKmt6rwuXWTvcoiVhIkVMLJz2nFntNR5BiAT8GFovlxA1i9iR8u9IKEPsplmN7Qo2VbswJMbdg_kZp3FLZ7kpEqD-BiKgpUbU9eeFaSRh_4KRPcFvFsfVsrt0-Agg3odOmhajnvGw4_6CzNB3iLPLmDTXuM_q3oVE6loS-LZwZqjxrEFQvjjXLFAUaRO5x0WwxSLi6q3mJu1Map4PAXnN6u2xsTQMvOhToq4HYPRqVNQ0UdSfcjwx4ykgBCfx7oPEF5D0cPs1fv3_Z24L-RoOLL0MS8PBqGbFx-AVg1CABYZfd8jaxNmLZqVkZ5zmrLU23IjtedClWF]--></g></svg>