<?xml version="1.0" encoding="us-ascii" standalone="no"?><svg xmlns="http://www.w3.org/2000/svg" xmlns:xlink="http://www.w3.org/1999/xlink" contentStyleType="text/css" height="1217px" preserveAspectRatio="none" style="width:605px;height:1217px;background:#FFFFFF;" version="1.1" viewBox="0 0 605 1217" width="605px" zoomAndPan="magnify"><defs/><g><ellipse cx="294.5" cy="20" fill="#222222" rx="10" ry="10" style="stroke:#222222;stroke-width:1.0;"/><rect fill="#F1F1F1" height="35.0938" rx="12.5" ry="12.5" style="stroke:#181818;stroke-width:0.5;" width="136" x="226.5" y="50"/><text fill="#000000" font-family="sans-serif" font-size="12" lengthAdjust="spacing" textLength="116" x="236.5" y="72.457">In&#237;cio do algoritmo A*</text><rect fill="#F1F1F1" height="35.0938" rx="12.5" ry="12.5" style="stroke:#181818;stroke-width:0.5;" width="379" x="105" y="105.0938"/><text fill="#000000" font-family="sans-serif" font-size="12" lengthAdjust="spacing" textLength="359" x="115" y="127.5508">Inicializa o n&#243; inicial e adiciona &#224; lista de n&#243;s a serem explorados</text><rect fill="#F1F1F1" height="35.0938" rx="12.5" ry="12.5" style="stroke:#181818;stroke-width:0.5;" width="310" x="139.5" y="217.1064"/><text fill="#000000" font-family="sans-serif" font-size="12" lengthAdjust="spacing" textLength="290" x="149.5" y="239.5635">Seleciona o n&#243; com menor custo estimado (f = g + h)</text><rect fill="#F1F1F1" height="35.0938" rx="12.5" ry="12.5" style="stroke:#181818;stroke-width:0.5;" width="361" x="114" y="272.2002"/><text fill="#000000" font-family="sans-serif" font-size="12" lengthAdjust="spacing" textLength="341" x="124" y="294.6572">Remove o n&#243; selecionado da lista de n&#243;s a serem explorados</text><rect fill="#F1F1F1" height="35.0938" rx="12.5" ry="12.5" style="stroke:#181818;stroke-width:0.5;" width="171" x="209" y="327.2939"/><text fill="#000000" font-family="sans-serif" font-size="12" lengthAdjust="spacing" textLength="151" x="219" y="349.751">Marca o n&#243; como explorado</text><rect fill="#F1F1F1" height="35.0938" rx="12.5" ry="12.5" style="stroke:#181818;stroke-width:0.5;" width="139" x="225" y="431.3057"/><text fill="#000000" font-family="sans-serif" font-size="12" lengthAdjust="spacing" textLength="119" x="235" y="453.7627">Caminho encontrado!</text><ellipse cx="294.5" cy="505.3525" fill="none" rx="11" ry="11" style="stroke:#222222;stroke-width:1.0;"/><ellipse cx="294.5" cy="505.3525" fill="#222222" rx="6" ry="6" style="stroke:#222222;stroke-width:1.0;"/><polygon fill="#F1F1F1" points="235.5,382.3877,353.5,382.3877,365.5,394.3877,353.5,406.3877,235.5,406.3877,223.5,394.3877,235.5,382.3877" style="stroke:#181818;stroke-width:0.5;"/><text fill="#000000" font-family="sans-serif" font-size="11" lengthAdjust="spacing" textLength="16" x="298.5" y="417.8066">sim</text><text fill="#000000" font-family="sans-serif" font-size="11" lengthAdjust="spacing" textLength="118" x="235.5" y="398.8887">N&#243; atual &#233; o n&#243; objetivo?</text><rect fill="#F1F1F1" height="35.0938" rx="12.5" ry="12.5" style="stroke:#181818;stroke-width:0.5;" width="273" x="158" y="558.3525"/><text fill="#000000" font-family="sans-serif" font-size="12" lengthAdjust="spacing" textLength="253" x="168" y="580.8096">Gera poss&#237;veis movimentos para n&#243;s vizinhos</text><rect fill="#F1F1F1" height="35.0938" rx="12.5" ry="12.5" style="stroke:#181818;stroke-width:0.5;" width="176" x="206.5" y="670.3652"/><text fill="#000000" font-family="sans-serif" font-size="12" lengthAdjust="spacing" textLength="156" x="216.5" y="692.8223">Calcula a posi&#231;&#227;o do vizinho</text><rect fill="#F1F1F1" height="35.0938" rx="12.5" ry="12.5" style="stroke:#181818;stroke-width:0.5;" width="150" x="219.5" y="823.2949"/><text fill="#000000" font-family="sans-serif" font-size="12" lengthAdjust="spacing" textLength="130" x="229.5" y="845.752">Cria um novo n&#243; vizinho</text><rect fill="#F1F1F1" height="35.0938" rx="12.5" ry="12.5" style="stroke:#181818;stroke-width:0.5;" width="343" x="123" y="886.9707"/><text fill="#000000" font-family="sans-serif" font-size="12" lengthAdjust="spacing" textLength="323" x="133" y="909.4277">Calcula custo do caminho (g) e estimativa at&#233; o objetivo (h)</text><rect fill="#F1F1F1" height="35.0938" rx="12.5" ry="12.5" style="stroke:#181818;stroke-width:0.5;" width="477" x="56" y="942.0645"/><text fill="#000000" font-family="sans-serif" font-size="12" lengthAdjust="spacing" textLength="457" x="66" y="964.5215">Adiciona n&#243; vizinho &#224; lista de n&#243;s a serem explorados se for uma alternativa melhor</text><polygon fill="#F1F1F1" points="230,774.377,359,774.377,371,786.377,359,798.377,230,798.377,218,786.377,230,774.377" style="stroke:#181818;stroke-width:0.5;"/><text fill="#000000" font-family="sans-serif" font-size="11" lengthAdjust="spacing" textLength="16" x="298.5" y="809.7959">sim</text><text fill="#000000" font-family="sans-serif" font-size="11" lengthAdjust="spacing" textLength="129" x="230" y="790.8779">Vizinho n&#227;o foi explorado?</text><polygon fill="#F1F1F1" points="294.5,997.1582,306.5,1009.1582,294.5,1021.1582,282.5,1009.1582,294.5,997.1582" style="stroke:#181818;stroke-width:0.5;"/><polygon fill="#F1F1F1" points="210.5,725.459,378.5,725.459,390.5,737.459,378.5,749.459,210.5,749.459,198.5,737.459,210.5,725.459" style="stroke:#181818;stroke-width:0.5;"/><text fill="#000000" font-family="sans-serif" font-size="11" lengthAdjust="spacing" textLength="16" x="298.5" y="760.8779">sim</text><text fill="#000000" font-family="sans-serif" font-size="11" lengthAdjust="spacing" textLength="168" x="210.5" y="741.96">Movimento para o vizinho &#233; v&#225;lido?</text><polygon fill="#F1F1F1" points="294.5,1041.1582,306.5,1053.1582,294.5,1065.1582,282.5,1053.1582,294.5,1041.1582" style="stroke:#181818;stroke-width:0.5;"/><polygon fill="#F1F1F1" points="207.5,613.4463,381.5,613.4463,393.5,625.4463,381.5,637.4463,207.5,637.4463,195.5,625.4463,207.5,613.4463" style="stroke:#181818;stroke-width:0.5;"/><text fill="#000000" font-family="sans-serif" font-size="11" lengthAdjust="spacing" textLength="16" x="298.5" y="648.8652">sim</text><text fill="#000000" font-family="sans-serif" font-size="11" lengthAdjust="spacing" textLength="174" x="207.5" y="629.9473">Existem vizinhos n&#227;o processados?</text><polygon fill="#F1F1F1" points="194.5,160.1875,394.5,160.1875,406.5,172.1875,394.5,184.1875,194.5,184.1875,182.5,172.1875,194.5,160.1875" style="stroke:#181818;stroke-width:0.5;"/><text fill="#000000" font-family="sans-serif" font-size="11" lengthAdjust="spacing" textLength="16" x="298.5" y="195.6064">sim</text><text fill="#000000" font-family="sans-serif" font-size="11" lengthAdjust="spacing" textLength="200" x="194.5" y="176.6885">Existem n&#243;s na lista a serem explorados?</text><rect fill="#F1F1F1" height="35.0938" rx="12.5" ry="12.5" style="stroke:#181818;stroke-width:0.5;" width="160" x="214.5" y="1129.1582"/><text fill="#000000" font-family="sans-serif" font-size="12" lengthAdjust="spacing" textLength="140" x="224.5" y="1151.6152">Caminho n&#227;o encontrado</text><ellipse cx="294.5" cy="1195.252" fill="none" rx="11" ry="11" style="stroke:#222222;stroke-width:1.0;"/><ellipse cx="294.5" cy="1195.252" fill="#222222" rx="6" ry="6" style="stroke:#222222;stroke-width:1.0;"/><line style="stroke:#181818;stroke-width:1.0;" x1="294.5" x2="294.5" y1="30" y2="50"/><polygon fill="#181818" points="290.5,40,294.5,50,298.5,40,294.5,44" style="stroke:#181818;stroke-width:1.0;"/><line style="stroke:#181818;stroke-width:1.0;" x1="294.5" x2="294.5" y1="85.0938" y2="105.0938"/><polygon fill="#181818" points="290.5,95.0938,294.5,105.0938,298.5,95.0938,294.5,99.0938" style="stroke:#181818;stroke-width:1.0;"/><line style="stroke:#181818;stroke-width:1.0;" x1="294.5" x2="294.5" y1="252.2002" y2="272.2002"/><polygon fill="#181818" points="290.5,262.2002,294.5,272.2002,298.5,262.2002,294.5,266.2002" style="stroke:#181818;stroke-width:1.0;"/><line style="stroke:#181818;stroke-width:1.0;" x1="294.5" x2="294.5" y1="307.2939" y2="327.2939"/><polygon fill="#181818" points="290.5,317.2939,294.5,327.2939,298.5,317.2939,294.5,321.2939" style="stroke:#181818;stroke-width:1.0;"/><line style="stroke:#181818;stroke-width:1.0;" x1="294.5" x2="294.5" y1="466.3994" y2="494.3525"/><polygon fill="#181818" points="290.5,484.3525,294.5,494.3525,298.5,484.3525,294.5,488.3525" style="stroke:#181818;stroke-width:1.0;"/><line style="stroke:#181818;stroke-width:1.0;" x1="294.5" x2="294.5" y1="406.3877" y2="431.3057"/><polygon fill="#181818" points="290.5,421.3057,294.5,431.3057,298.5,421.3057,294.5,425.3057" style="stroke:#181818;stroke-width:1.0;"/><line style="stroke:#181818;stroke-width:1.0;" x1="365.5" x2="377.5" y1="394.3877" y2="394.3877"/><polygon fill="#181818" points="373.5,464.3525,377.5,474.3525,381.5,464.3525,377.5,468.3525" style="stroke:#181818;stroke-width:1.0;"/><line style="stroke:#181818;stroke-width:1.0;" x1="377.5" x2="377.5" y1="394.3877" y2="538.3525"/><line style="stroke:#181818;stroke-width:1.0;" x1="377.5" x2="294.5" y1="538.3525" y2="538.3525"/><line style="stroke:#181818;stroke-width:1.0;" x1="294.5" x2="294.5" y1="538.3525" y2="558.3525"/><polygon fill="#181818" points="290.5,548.3525,294.5,558.3525,298.5,548.3525,294.5,552.3525" style="stroke:#181818;stroke-width:1.0;"/><line style="stroke:#181818;stroke-width:1.0;" x1="294.5" x2="294.5" y1="362.3877" y2="382.3877"/><polygon fill="#181818" points="290.5,372.3877,294.5,382.3877,298.5,372.3877,294.5,376.3877" style="stroke:#181818;stroke-width:1.0;"/><line style="stroke:#181818;stroke-width:1.0;" x1="294.5" x2="294.5" y1="858.3887" y2="886.9707"/><polygon fill="#181818" points="290.5,876.9707,294.5,886.9707,298.5,876.9707,294.5,880.9707" style="stroke:#181818;stroke-width:1.0;"/><line style="stroke:#181818;stroke-width:1.0;" x1="294.5" x2="294.5" y1="922.0645" y2="942.0645"/><polygon fill="#181818" points="290.5,932.0645,294.5,942.0645,298.5,932.0645,294.5,936.0645" style="stroke:#181818;stroke-width:1.0;"/><line style="stroke:#181818;stroke-width:1.0;" x1="294.5" x2="294.5" y1="798.377" y2="823.2949"/><polygon fill="#181818" points="290.5,813.2949,294.5,823.2949,298.5,813.2949,294.5,817.2949" style="stroke:#181818;stroke-width:1.0;"/><line style="stroke:#181818;stroke-width:1.0;" x1="371" x2="543" y1="786.377" y2="786.377"/><polygon fill="#181818" points="539,894.5176,543,904.5176,547,894.5176,543,898.5176" style="stroke:#181818;stroke-width:1.0;"/><line style="stroke:#181818;stroke-width:1.0;" x1="543" x2="543" y1="786.377" y2="1009.1582"/><line style="stroke:#181818;stroke-width:1.0;" x1="543" x2="306.5" y1="1009.1582" y2="1009.1582"/><polygon fill="#181818" points="316.5,1005.1582,306.5,1009.1582,316.5,1013.1582,312.5,1009.1582" style="stroke:#181818;stroke-width:1.0;"/><line style="stroke:#181818;stroke-width:1.0;" x1="294.5" x2="294.5" y1="977.1582" y2="997.1582"/><polygon fill="#181818" points="290.5,987.1582,294.5,997.1582,298.5,987.1582,294.5,991.1582" style="stroke:#181818;stroke-width:1.0;"/><line style="stroke:#181818;stroke-width:1.0;" x1="294.5" x2="294.5" y1="749.459" y2="774.377"/><polygon fill="#181818" points="290.5,764.377,294.5,774.377,298.5,764.377,294.5,768.377" style="stroke:#181818;stroke-width:1.0;"/><line style="stroke:#181818;stroke-width:1.0;" x1="390.5" x2="561" y1="737.459" y2="737.459"/><polygon fill="#181818" points="557,894.5176,561,904.5176,565,894.5176,561,898.5176" style="stroke:#181818;stroke-width:1.0;"/><line style="stroke:#181818;stroke-width:1.0;" x1="561" x2="561" y1="737.459" y2="1053.1582"/><line style="stroke:#181818;stroke-width:1.0;" x1="561" x2="306.5" y1="1053.1582" y2="1053.1582"/><polygon fill="#181818" points="316.5,1049.1582,306.5,1053.1582,316.5,1057.1582,312.5,1053.1582" style="stroke:#181818;stroke-width:1.0;"/><line style="stroke:#181818;stroke-width:1.0;" x1="294.5" x2="294.5" y1="1021.1582" y2="1041.1582"/><polygon fill="#181818" points="290.5,1031.1582,294.5,1041.1582,298.5,1031.1582,294.5,1035.1582" style="stroke:#181818;stroke-width:1.0;"/><line style="stroke:#181818;stroke-width:1.0;" x1="294.5" x2="294.5" y1="705.459" y2="725.459"/><polygon fill="#181818" points="290.5,715.459,294.5,725.459,298.5,715.459,294.5,719.459" style="stroke:#181818;stroke-width:1.0;"/><line style="stroke:#181818;stroke-width:1.0;" x1="294.5" x2="294.5" y1="637.4463" y2="670.3652"/><polygon fill="#181818" points="290.5,660.3652,294.5,670.3652,298.5,660.3652,294.5,664.3652" style="stroke:#181818;stroke-width:1.0;"/><line style="stroke:#181818;stroke-width:1.0;" x1="294.5" x2="294.5" y1="1065.1582" y2="1075.1582"/><line style="stroke:#181818;stroke-width:1.0;" x1="294.5" x2="579" y1="1075.1582" y2="1075.1582"/><polygon fill="#181818" points="575,866.9707,579,856.9707,583,866.9707,579,862.9707" style="stroke:#181818;stroke-width:1.0;"/><line style="stroke:#181818;stroke-width:1.0;" x1="579" x2="579" y1="625.4463" y2="1075.1582"/><line style="stroke:#181818;stroke-width:1.0;" x1="579" x2="393.5" y1="625.4463" y2="625.4463"/><polygon fill="#181818" points="403.5,621.4463,393.5,625.4463,403.5,629.4463,399.5,625.4463" style="stroke:#181818;stroke-width:1.0;"/><line style="stroke:#181818;stroke-width:1.0;" x1="195.5" x2="42" y1="625.4463" y2="625.4463"/><polygon fill="#181818" points="38,852.9707,42,862.9707,46,852.9707,42,856.9707" style="stroke:#181818;stroke-width:1.0;"/><line style="stroke:#181818;stroke-width:1.0;" x1="42" x2="42" y1="625.4463" y2="1087.1582"/><line style="stroke:#181818;stroke-width:1.0;" x1="42" x2="591" y1="1087.1582" y2="1087.1582"/><line style="stroke:#181818;stroke-width:1.0;" x1="591" x2="591" y1="172.1875" y2="1087.1582"/><line style="stroke:#181818;stroke-width:1.0;" x1="591" x2="406.5" y1="172.1875" y2="172.1875"/><polygon fill="#181818" points="416.5,168.1875,406.5,172.1875,416.5,176.1875,412.5,172.1875" style="stroke:#181818;stroke-width:1.0;"/><line style="stroke:#181818;stroke-width:1.0;" x1="294.5" x2="294.5" y1="593.4463" y2="613.4463"/><polygon fill="#181818" points="290.5,603.4463,294.5,613.4463,298.5,603.4463,294.5,607.4463" style="stroke:#181818;stroke-width:1.0;"/><line style="stroke:#181818;stroke-width:1.0;" x1="294.5" x2="294.5" y1="184.1875" y2="217.1064"/><polygon fill="#181818" points="290.5,207.1064,294.5,217.1064,298.5,207.1064,294.5,211.1064" style="stroke:#181818;stroke-width:1.0;"/><line style="stroke:#181818;stroke-width:1.0;" x1="182.5" x2="24" y1="172.1875" y2="172.1875"/><polygon fill="#181818" points="20,610.3174,24,620.3174,28,610.3174,24,614.3174" style="stroke:#181818;stroke-width:1.0;"/><line style="stroke:#181818;stroke-width:1.0;" x1="24" x2="24" y1="172.1875" y2="1109.1582"/><line style="stroke:#181818;stroke-width:1.0;" x1="24" x2="294.5" y1="1109.1582" y2="1109.1582"/><line style="stroke:#181818;stroke-width:1.0;" x1="294.5" x2="294.5" y1="1109.1582" y2="1129.1582"/><polygon fill="#181818" points="290.5,1119.1582,294.5,1129.1582,298.5,1119.1582,294.5,1123.1582" style="stroke:#181818;stroke-width:1.0;"/><line style="stroke:#181818;stroke-width:1.0;" x1="294.5" x2="294.5" y1="140.1875" y2="160.1875"/><polygon fill="#181818" points="290.5,150.1875,294.5,160.1875,298.5,150.1875,294.5,154.1875" style="stroke:#181818;stroke-width:1.0;"/><line style="stroke:#181818;stroke-width:1.0;" x1="294.5" x2="294.5" y1="1164.252" y2="1184.252"/><polygon fill="#181818" points="290.5,1174.252,294.5,1184.252,298.5,1174.252,294.5,1178.252" style="stroke:#181818;stroke-width:1.0;"/><!--SRC=[ZL91ZjGm4Bpd5SKj0p-O4K8hX127vG0ITvFqJ1hPxiZsXDM-1iG1STWJJyZ7QDj9PiJkOK-nqjNLLTqLamcfsN_myqF7WbvWx4a29oUuUNbeSeaxDfRl3GH-_WkkFq0mlRx46ym_O3acWvuo9C8WKY07kXkj1DDBLAhl0rj2- -vEeLehG6skdOyxtkp04Mrajsk0_MUoLATL6PquEF8Iq9rZ4b1CxBGFxH6lSS8h3Bj3Rln4JYPQkkBAei3UF4Er4joQq5rDbKjTJG5yHFjHIoQTTIlpdmKfNxzHuadKHXh8RqQKyArnx0VbyPtub8bU74f5VOpw8D_pCLFltrCm62N6-M4YtOOwOJMT968qMYgo9xxFTB6e-M_9QqsHlmHZa8vYVBpT8ifsPviFeVDu_ftnkgI5e71NhxUhXYfXWsJhq_pJSl-4vzhwPK4MCKVXooQVwiYY0XkSDIiorQrkSYwGHNTDWIhkbkssfvrcjCP23w7EKZdEUXYqDI0BpyqQvginpmcs_b0hGLNg19ie-3hDaHqah0FgIQzV-YstQhP7imMZxEUIZaDJWl4F]--></g></svg>